<svg width="16" height="12" viewBox="0 0 16 12" fill="none" xmlns="http://www.w3.org/2000/svg">
<path d="M3.42495 4.56301L14.575 4.56301C14.8583 4.56301 15.0958 4.65884 15.2875 4.85051C15.4791 5.04217 15.575 5.27967 15.575 5.56301C15.575 5.84634 15.4791 6.08384 15.2875 6.27551C15.0958 6.46717 14.8583 6.56301 14.575 6.56301L3.42495 6.56301L6.27495 9.41301C6.47495 9.61301 6.57078 9.84634 6.56245 10.113C6.55412 10.3797 6.45828 10.613 6.27495 10.813C6.07495 11.013 5.83745 11.1172 5.56245 11.1255C5.28745 11.1338 5.04995 11.038 4.84995 10.838L0.274951 6.26301C0.174951 6.16301 0.104118 6.05467 0.0624518 5.93801C0.0207848 5.82134 -4.81627e-05 5.69634 -4.81511e-05 5.56301C-4.81394e-05 5.42967 0.0207849 5.30467 0.0624519 5.18801C0.104118 5.07134 0.174951 4.96301 0.274952 4.86301L4.84995 0.288006C5.04995 0.0880061 5.28745 -0.00782675 5.56245 0.000506479C5.83745 0.00883971 6.07495 0.113007 6.27495 0.313007C6.45829 0.513006 6.55412 0.74634 6.56245 1.01301C6.57079 1.27967 6.47495 1.51301 6.27495 1.71301L3.42495 4.56301Z" fill="currentColor"/>
</svg>
