<svg width="20" height="20" viewBox="0 0 20 20" fill="none" xmlns="http://www.w3.org/2000/svg">
<mask id="mask0_11_2733" style="mask-type:alpha" maskUnits="userSpaceOnUse" x="0" y="0" width="20" height="20">
<rect width="20" height="20" fill="#D9D9D9"/>
</mask>
<g mask="url(#mask0_11_2733)">
<path d="M5.00008 16.6667C4.08341 16.6667 3.29869 16.3403 2.64591 15.6875C1.99314 15.0348 1.66675 14.25 1.66675 13.3334V6.66671C1.66675 5.75004 1.99314 4.96532 2.64591 4.31254C3.29869 3.65976 4.08341 3.33337 5.00008 3.33337H15.0001C15.9167 3.33337 16.7015 3.65976 17.3542 4.31254C18.007 4.96532 18.3334 5.75004 18.3334 6.66671V13.3334C18.3334 14.25 18.007 15.0348 17.3542 15.6875C16.7015 16.3403 15.9167 16.6667 15.0001 16.6667H5.00008ZM5.00008 6.66671H15.0001C15.3056 6.66671 15.5973 6.70143 15.8751 6.77087C16.1529 6.84032 16.4167 6.95143 16.6667 7.10421V6.66671C16.6667 6.20837 16.5036 5.81601 16.1772 5.48962C15.8508 5.16324 15.4584 5.00004 15.0001 5.00004H5.00008C4.54175 5.00004 4.14939 5.16324 3.823 5.48962C3.49661 5.81601 3.33341 6.20837 3.33341 6.66671V7.10421C3.58341 6.95143 3.8473 6.84032 4.12508 6.77087C4.40286 6.70143 4.69453 6.66671 5.00008 6.66671ZM3.45841 9.37504L12.7292 11.625C12.8542 11.6528 12.9792 11.6528 13.1042 11.625C13.2292 11.5973 13.3473 11.5417 13.4584 11.4584L16.3542 9.04171C16.2015 8.83337 16.007 8.66324 15.7709 8.53129C15.5348 8.39935 15.2779 8.33337 15.0001 8.33337H5.00008C4.63897 8.33337 4.323 8.42712 4.05216 8.61462C3.78133 8.80212 3.58341 9.0556 3.45841 9.37504Z" fill="#EAEAEA" fill-opacity="0.8"/>
</g>
</svg>
