<svg width="900" height="900" viewBox="0 0 240 240" fill="none" xmlns="http://www.w3.org/2000/svg">
<path fill-rule="evenodd" clip-rule="evenodd" d="M119.747 60.4934C129.475 60.4934 137.362 52.6065 137.362 42.8783C137.362 33.15 129.475 25.2632 119.747 25.2632C110.018 25.2632 102.132 33.15 102.132 42.8783C102.132 52.6065 110.018 60.4934 119.747 60.4934ZM119.355 52.6644C124.543 52.6644 128.75 48.4579 128.75 43.2697C128.75 38.0815 124.543 33.875 119.355 33.875C114.167 33.875 109.96 38.0815 109.96 43.2697C109.96 48.4579 114.167 52.6644 119.355 52.6644Z" fill="#262626"/>
<path d="M119.394 184.269C138.44 184.269 153.881 168.828 153.881 149.782C153.881 130.736 138.44 115.296 119.394 115.296C100.348 115.296 84.9079 130.736 84.9079 149.782C84.9079 168.828 100.348 184.269 119.394 184.269Z" fill="#EC8787"/>
<path d="M173.975 124.142V97.6839C173.975 83.252 168.242 69.4121 158.038 59.2071C147.833 49.0028 133.993 43.2697 119.561 43.2697C105.13 43.2697 91.289 49.0028 81.0848 59.2071C70.8798 69.4121 65.1467 83.252 65.1467 97.6839V124.142C65.1475 130.22 63.4283 136.175 60.1871 141.317C56.9459 146.46 52.3159 150.58 46.8325 153.202C45.5721 153.802 44.5081 154.748 43.7644 155.93C43.0206 157.111 42.6276 158.479 42.6315 159.875V160.019C42.6307 160.523 42.7294 161.022 42.9212 161.489C43.1138 161.955 43.3964 162.378 43.7526 162.735C44.1088 163.092 44.5316 163.375 44.9974 163.568C45.4633 163.762 45.962 163.861 46.4669 163.861H192.648C193.153 163.861 193.651 163.762 194.117 163.568C194.583 163.375 195.007 163.092 195.363 162.735C195.719 162.378 196.001 161.955 196.193 161.489C196.386 161.022 196.484 160.523 196.483 160.019V159.875C196.484 158.484 196.09 157.12 195.348 155.943C194.606 154.766 193.546 153.823 192.29 153.223C186.803 150.6 182.17 146.476 178.929 141.329C175.688 136.183 173.97 130.224 173.975 124.142Z" fill="#262626"/>
<path fill-rule="evenodd" clip-rule="evenodd" d="M196.861 163.835H42.6315V159.138H196.861V163.835Z" fill="#EAEAEA" fill-opacity="0.2"/>
<path d="M163.197 93.3748C175.303 93.3748 185.118 83.5605 185.118 71.4538C185.118 59.3472 175.303 49.5328 163.197 49.5328C151.09 49.5328 141.276 59.3472 141.276 71.4538C141.276 83.5605 151.09 93.3748 163.197 93.3748Z" fill="#121212"/>
<path d="M157.717 71.4452C157.717 69.5013 158.162 67.9723 159.05 66.8598C159.951 65.7473 161.334 65.1907 163.197 65.1907C165.048 65.1907 166.424 65.7528 167.326 66.8762C168.227 67.9895 168.678 69.5122 168.678 71.4452C168.678 73.3899 168.227 74.9236 167.326 76.0478C166.424 77.1603 165.048 77.717 163.197 77.717C161.334 77.717 159.951 77.1603 159.05 76.0478C158.162 74.9236 157.717 73.3899 157.717 71.4452ZM164.677 71.4452C164.677 70.5464 164.58 69.8716 164.385 69.4222C164.19 68.9619 163.794 68.7309 163.197 68.7309C162.588 68.7309 162.187 68.9619 161.992 69.4222C161.797 69.8716 161.7 70.5464 161.7 71.4452C161.7 72.3557 161.797 73.0415 161.992 73.5019C162.187 73.952 162.588 74.1767 163.197 74.1767C163.794 74.1767 164.19 73.952 164.385 73.5019C164.58 73.0415 164.677 72.3557 164.677 71.4452Z" fill="#EAEAEA" fill-opacity="0.2"/>
<path fill-rule="evenodd" clip-rule="evenodd" d="M77.1638 175.815C73.4137 179.206 69.6739 182.53 66.0232 186.029C65.2357 186.779 65.2059 188.016 65.9512 188.795C66.6989 189.582 67.9429 189.606 68.7234 188.859C72.3553 185.381 76.063 182.086 79.7888 178.718C80.5913 177.988 80.6531 176.749 79.9352 175.953C79.2071 175.151 77.9663 175.085 77.1638 175.815Z" fill="#EAEAEA" fill-opacity="0.2"/>
<path fill-rule="evenodd" clip-rule="evenodd" d="M161.885 175.817C165.615 179.209 169.334 182.533 172.962 186.033C173.746 186.783 173.769 188.019 173.02 188.796C172.27 189.581 171.027 189.605 170.251 188.857C166.641 185.38 162.954 182.083 159.249 178.715C158.451 177.984 158.395 176.747 159.116 175.951C159.847 175.151 161.087 175.086 161.885 175.817Z" fill="#EAEAEA" fill-opacity="0.2"/>
<path fill-rule="evenodd" clip-rule="evenodd" d="M117.126 197.731C117.066 202.777 116.964 207.769 117.051 212.813C117.066 213.899 117.952 214.757 119.03 214.737C120.114 214.719 120.976 213.824 120.957 212.746C120.874 207.729 120.975 202.779 121.035 197.768C121.045 196.685 120.179 195.802 119.108 195.791C118.027 195.783 117.136 196.649 117.126 197.731Z" fill="#EAEAEA" fill-opacity="0.2"/>
<path d="M43.421 39.4737C45.1651 39.4737 46.5789 38.0599 46.5789 36.3158C46.5789 34.5717 45.1651 33.1579 43.421 33.1579C41.677 33.1579 40.2632 34.5717 40.2632 36.3158C40.2632 38.0599 41.677 39.4737 43.421 39.4737Z" fill="#EAEAEA" fill-opacity="0.2"/>
<path d="M218.684 133.421C221.3 133.421 223.421 131.3 223.421 128.684C223.421 126.068 221.3 123.947 218.684 123.947C216.068 123.947 213.947 126.068 213.947 128.684C213.947 131.3 216.068 133.421 218.684 133.421Z" fill="#EAEAEA" fill-opacity="0.2"/>
<path d="M35.9211 203.684C37.0111 203.684 37.8947 202.801 37.8947 201.711C37.8947 200.62 37.0111 199.737 35.9211 199.737C34.831 199.737 33.9474 200.62 33.9474 201.711C33.9474 202.801 34.831 203.684 35.9211 203.684Z" fill="#EAEAEA" fill-opacity="0.2"/>
</svg>
