<svg width="20" height="20" viewBox="0 0 20 20" fill="none" xmlns="http://www.w3.org/2000/svg">
<mask id="mask0_11_2729" style="mask-type:alpha" maskUnits="userSpaceOnUse" x="0" y="0" width="20" height="20">
<rect width="20" height="20" fill="#D9D9D9"/>
</mask>
<g mask="url(#mask0_11_2729)">
<path d="M9.99992 18.3333C9.54159 18.3333 9.14922 18.1701 8.82284 17.8437C8.49645 17.5173 8.33325 17.125 8.33325 16.6666H11.6666C11.6666 17.125 11.5034 17.5173 11.177 17.8437C10.8506 18.1701 10.4583 18.3333 9.99992 18.3333ZM4.16659 15.8333C3.93047 15.8333 3.73256 15.7534 3.57284 15.5937C3.41311 15.434 3.33325 15.2361 3.33325 15C3.33325 14.7638 3.41311 14.5659 3.57284 14.4062C3.73256 14.2465 3.93047 14.1666 4.16659 14.1666H4.99992V8.33329C4.99992 7.18051 5.34714 6.15621 6.04159 5.26038C6.73603 4.36454 7.63881 3.77774 8.74992 3.49996V2.91663C8.74992 2.5694 8.87145 2.27426 9.1145 2.03121C9.35756 1.78815 9.6527 1.66663 9.99992 1.66663C10.3471 1.66663 10.6423 1.78815 10.8853 2.03121C11.1284 2.27426 11.2499 2.5694 11.2499 2.91663V3.18746C11.111 3.46524 11.0069 3.7569 10.9374 4.06246C10.868 4.36801 10.8333 4.68051 10.8333 4.99996C10.8333 6.15274 11.2395 7.13538 12.052 7.94788C12.8645 8.76038 13.8471 9.16663 14.9999 9.16663V14.1666H15.8333C16.0694 14.1666 16.2673 14.2465 16.427 14.4062C16.5867 14.5659 16.6666 14.7638 16.6666 15C16.6666 15.2361 16.5867 15.434 16.427 15.5937C16.2673 15.7534 16.0694 15.8333 15.8333 15.8333H4.16659ZM14.9999 7.49996C14.3055 7.49996 13.7152 7.2569 13.2291 6.77079C12.743 6.28468 12.4999 5.6944 12.4999 4.99996C12.4999 4.30551 12.743 3.71524 13.2291 3.22913C13.7152 2.74301 14.3055 2.49996 14.9999 2.49996C15.6944 2.49996 16.2846 2.74301 16.7708 3.22913C17.2569 3.71524 17.4999 4.30551 17.4999 4.99996C17.4999 5.6944 17.2569 6.28468 16.7708 6.77079C16.2846 7.2569 15.6944 7.49996 14.9999 7.49996Z" fill="#EAEAEA" fill-opacity="0.8"/>
</g>
</svg>
